<svg width="38" height="45" viewBox="0 0 38 45" fill="none" xmlns="http://www.w3.org/2000/svg">
<ellipse cx="19" cy="37" rx="12" ry="4" fill="url(#paint0_radial_3_1479)"/>
<g filter="url(#filter0_d_3_1479)">
<path d="M32 16.8571C32 26.7143 19 37 19 37C19 37 6 26.7143 6 16.8571C6 9.75634 11.8203 4 19 4C26.1797 4 32 9.75634 32 16.8571Z" fill="#656E5E"/>
<path d="M31 16.8571C31 21.4006 27.9694 26.1956 24.7397 29.9754C23.1478 31.8385 21.553 33.4029 20.3552 34.502C19.8053 35.0066 19.3405 35.4117 19 35.7013C18.6595 35.4117 18.1947 35.0066 17.6448 34.502C16.447 33.4029 14.8522 31.8385 13.2603 29.9754C10.0306 26.1956 7 21.4006 7 16.8571C7 10.319 12.3621 5 19 5C25.6379 5 31 10.319 31 16.8571Z" stroke="white" stroke-width="2"/>
</g>
<defs>
<filter id="filter0_d_3_1479" x="0" y="0" width="38" height="45" filterUnits="userSpaceOnUse" color-interpolation-filters="sRGB">
<feFlood flood-opacity="0" result="BackgroundImageFix"/>
<feColorMatrix in="SourceAlpha" type="matrix" values="0 0 0 0 0 0 0 0 0 0 0 0 0 0 0 0 0 0 127 0" result="hardAlpha"/>
<feOffset dy="2"/>
<feGaussianBlur stdDeviation="3"/>
<feColorMatrix type="matrix" values="0 0 0 0 0 0 0 0 0 0 0 0 0 0 0 0 0 0 0.2 0"/>
<feBlend mode="normal" in2="BackgroundImageFix" result="effect1_dropShadow_3_1479"/>
<feBlend mode="normal" in="SourceGraphic" in2="effect1_dropShadow_3_1479" result="shape"/>
</filter>
<radialGradient id="paint0_radial_3_1479" cx="0" cy="0" r="1" gradientUnits="userSpaceOnUse" gradientTransform="translate(19 37) rotate(90) scale(3.5 10.5)">
<stop stop-opacity="0.24"/>
<stop offset="1" stop-color="#8F8F8F" stop-opacity="0"/>
</radialGradient>
</defs>
</svg>
