<svg width="24" height="24" viewBox="0 0 24 24" fill="none" xmlns="http://www.w3.org/2000/svg">
<path d="M21.4595 4.65938C21.3707 4.58941 21.2672 4.54042 21.1568 4.51607C21.0464 4.49172 20.932 4.49264 20.822 4.51876L15.0845 5.95313L9.3376 3.07501H9.32822L9.25322 3.04688H9.23447L9.16885 3.02813H9.14072L9.0751 3.00938H8.82197L2.82197 4.50938C2.65682 4.54974 2.51028 4.64501 2.40637 4.77958C2.30247 4.91414 2.24736 5.08002 2.2501 5.25001V18.75C2.249 18.8643 2.27472 18.9773 2.32519 19.0799C2.37567 19.1824 2.44948 19.2718 2.54072 19.3406C2.67155 19.4439 2.8334 19.5001 3.0001 19.5L3.17822 19.4813L8.91572 18.0469L14.6626 20.925H14.672L14.7376 20.9531H14.747L14.822 20.9813H15.1782L21.1782 19.4813C21.3418 19.4413 21.4872 19.3474 21.5909 19.2147C21.6946 19.0821 21.7507 18.9184 21.7501 18.75V5.25001C21.7512 5.1357 21.7255 5.02272 21.675 4.92015C21.6245 4.81757 21.5507 4.72826 21.4595 4.65938ZM14.2501 19.0406L9.7501 16.7906V4.95938L14.2501 7.20938V19.0406Z" fill="#2B381F"/>
</svg>
